<svg width="14" height="14" viewBox="0 0 14 14" fill="none" xmlns="http://www.w3.org/2000/svg">
<path fill-rule="evenodd" clip-rule="evenodd" d="M2.54545 0C1.87036 0 1.22291 0.268181 0.745546 0.745546C0.268181 1.22291 0 1.87036 0 2.54545V11.4545C0 12.1296 0.268181 12.7771 0.745546 13.2545C1.22291 13.7318 1.87036 14 2.54545 14H11.4545C12.1296 14 12.7771 13.7318 13.2545 13.2545C13.7318 12.7771 14 12.1296 14 11.4545V2.54545C14 1.87036 13.7318 1.22291 13.2545 0.745546C12.7771 0.268181 12.1296 0 11.4545 0H2.54545ZM6.95164 1.76082C5.71964 1.76082 4.58182 2.21582 3.76091 3.17355C2.94636 4.12491 2.49264 5.51091 2.49264 7.29273C2.49264 9.11527 3.12455 10.3791 4.08355 11.1777C5.02345 11.9605 6.21091 12.2392 7.24436 12.2392C9.33291 12.2392 11.0345 10.9537 11.1166 9.10573C11.158 8.17791 10.7475 7.40664 10.066 6.88673C9.87918 6.74487 9.6778 6.62327 9.46527 6.524L9.45764 6.405C9.38445 5.43455 8.96955 4.82364 8.44582 4.47555C8.06632 4.22961 7.62403 4.09816 7.17182 4.09691C6.44382 4.09691 5.80809 4.39918 5.29518 4.98782C5.24717 5.04297 5.2105 5.10704 5.18725 5.17637C5.164 5.2457 5.15463 5.31893 5.15969 5.39188C5.16474 5.46483 5.18411 5.53607 5.21669 5.60153C5.24928 5.667 5.29444 5.7254 5.34959 5.77341C5.40475 5.82142 5.46882 5.8581 5.53815 5.88134C5.60748 5.90459 5.68071 5.91396 5.75365 5.90891C5.8266 5.90385 5.89784 5.88448 5.96331 5.8519C6.02877 5.81931 6.08717 5.77416 6.13518 5.719C6.45336 5.35373 6.79064 5.21055 7.17245 5.21055C7.308 5.21055 7.58736 5.24236 7.82982 5.40336C8.00609 5.52045 8.21036 5.73555 8.30391 6.17782C8.03947 6.1369 7.77222 6.1169 7.50464 6.118C6.55645 6.118 5.89018 6.35918 5.47655 6.80209C5.06418 7.24309 5.00436 7.77636 5.02536 8.13655C5.03916 8.37202 5.10239 8.60194 5.21094 8.81136C5.31948 9.02077 5.47091 9.20498 5.65536 9.352C6.05309 9.67273 6.59718 9.828 7.24436 9.78027C7.94691 9.72873 8.55973 9.37109 8.96255 8.75955C9.15218 8.47191 9.29027 8.13591 9.37491 7.76045L9.39018 7.77191C9.80509 8.08882 10.0285 8.52091 10.0043 9.05609C9.95655 10.1347 8.92882 11.1255 7.24436 11.1255C6.391 11.1255 5.48164 10.8926 4.79564 10.3218C4.12873 9.76627 3.60627 8.83591 3.60627 7.29273C3.60627 5.691 4.01418 4.59009 4.60664 3.89836C5.19209 3.21555 6.00536 2.87445 6.95164 2.87445C7.95518 2.87445 8.75064 3.115 9.32018 3.52355C9.88145 3.92573 10.262 4.51818 10.4026 5.30918C10.4285 5.45458 10.5111 5.58373 10.6323 5.66823C10.7534 5.75272 10.9031 5.78563 11.0485 5.75973C11.1939 5.73382 11.3231 5.65122 11.4076 5.53008C11.4921 5.40895 11.525 5.25922 11.4991 5.11382C11.3101 4.05491 10.78 3.20027 9.96927 2.61864C9.16618 2.04273 8.12636 1.76082 6.95164 1.76082ZM7.50464 7.23164C7.80076 7.23248 8.07439 7.25964 8.32555 7.31309C8.27336 7.66818 8.16645 7.94436 8.03282 8.14673C7.81709 8.47382 7.51545 8.64373 7.16227 8.66982C6.73845 8.701 6.48964 8.59473 6.35345 8.48527C6.29037 8.43538 6.2385 8.37277 6.20122 8.3015C6.16394 8.23023 6.14209 8.15191 6.13709 8.07164C6.12564 7.87818 6.16445 7.69682 6.29045 7.56255C6.41518 7.42891 6.727 7.23164 7.50464 7.23164Z" fill="#FF6600"/>
</svg>
