<svg width="15" height="15" viewBox="0 0 15 15" fill="none" xmlns="http://www.w3.org/2000/svg">
<path d="M3.60938 6.40008V5.20661C3.60938 5.13597 3.60938 5.10772 3.70158 5.10772C4.49202 5.10772 5.13448 5.06087 5.45348 5.249C5.77322 5.43638 5.78661 5.69515 5.79181 5.77249C5.79702 5.84982 5.79479 5.96061 5.64607 6.23054C5.49735 6.50046 4.83184 6.50566 4.35148 6.50566H3.71571C3.63763 6.50566 3.60938 6.47741 3.60938 6.40008ZM5.79999 7.65079C5.87364 7.7448 5.92621 7.85355 5.95413 7.96966C5.98205 8.08577 5.98468 8.20653 5.96183 8.32375C5.93898 8.44097 5.89119 8.5519 5.82169 8.64902C5.7522 8.74614 5.66263 8.82718 5.55907 8.88664C5.40694 8.95065 5.24375 8.98425 5.07871 8.98554H3.70827C3.63763 8.98554 3.60938 8.98554 3.60938 8.89408V7.48126C3.60938 7.41061 3.60938 7.38236 3.70158 7.38236H4.61248C5.17761 7.38236 5.53081 7.33328 5.79999 7.65079Z" fill="#FF6600"/>
<path d="M10.7739 6.99644C10.736 6.9071 10.6785 6.82743 10.6056 6.76333C10.5328 6.69922 10.4464 6.65233 10.353 6.62613C10.1662 6.5751 9.97077 6.56429 9.77953 6.59442C9.58828 6.62454 9.4056 6.69491 9.24356 6.80087C9.08208 6.96403 8.97774 7.17507 8.94613 7.40244C8.94613 7.482 8.94613 7.49687 9.04056 7.49687H10.8029C10.8899 7.49687 10.8899 7.49687 10.8824 7.38756C10.8741 7.25092 10.8376 7.1176 10.7739 6.99644ZM10.7739 6.99644C10.736 6.9071 10.6777 6.82743 10.6049 6.76333C10.532 6.69922 10.4464 6.65233 10.353 6.62613C10.1662 6.5751 9.97077 6.56429 9.77953 6.59442C9.58828 6.62454 9.4056 6.69491 9.24356 6.80087C9.08208 6.96403 8.977 7.17507 8.94538 7.40244C8.94538 7.482 8.94538 7.49687 9.03982 7.49687H10.8029C10.8899 7.49687 10.8899 7.49687 10.8824 7.38756C10.8741 7.25092 10.8361 7.1176 10.7724 6.99644M11.6 0H2.9C2.13087 0 1.39325 0.305535 0.84939 0.84939C0.305535 1.39325 0 2.13087 0 2.9V11.6C0 12.3691 0.305535 13.1068 0.84939 13.6506C1.39325 14.1945 2.13087 14.5 2.9 14.5H11.6C12.3691 14.5 13.1068 14.1945 13.6506 13.6506C14.1945 13.1068 14.5 12.3691 14.5 11.6V2.9C14.5 2.13087 14.1945 1.39325 13.6506 0.84939C13.1068 0.305535 12.3691 0 11.6 0ZM8.758 4.61769C8.758 4.56044 8.758 4.53813 8.82344 4.53813H11.1724V5.14787C11.1724 5.14787 11.1747 5.191 11.136 5.191H8.85987C8.758 5.191 8.758 5.191 8.758 5.08987V4.61769ZM6.583 9.947C5.69069 10.4326 4.19087 10.237 2.41444 10.237V4.22656H5.249C5.974 4.22656 6.83656 4.408 7.06856 5.17613C7.18903 5.51162 7.1817 5.87973 7.04797 6.21016C6.91423 6.54059 6.66347 6.81018 6.34356 6.96744C6.63844 7.07656 6.89588 7.26787 7.08541 7.51873C7.27495 7.7696 7.38865 8.06951 7.41306 8.38298C7.43747 8.69644 7.37156 9.01034 7.22314 9.28752C7.07472 9.5647 6.84999 9.79355 6.57556 9.947H6.583ZM11.9844 8.236H9.08444C9.00487 8.236 8.932 8.27913 8.94613 8.381C9.03313 8.80856 9.22869 9.25844 9.67187 9.32387C9.90588 9.39352 10.1565 9.38281 10.3837 9.29346C10.6109 9.20411 10.8017 9.04126 10.9256 8.83087C10.9256 8.83087 10.962 8.787 10.9836 8.787H11.9264C11.9264 8.787 11.9844 8.787 11.9696 8.83756C11.8701 9.11913 11.723 9.38148 11.5346 9.61313C11.2826 9.85384 10.9785 10.0332 10.6459 10.1374C10.3134 10.2416 9.96128 10.2677 9.61699 10.2137C9.2727 10.1598 8.94548 10.0272 8.66071 9.82637C8.37595 9.62549 8.14131 9.36168 7.975 9.05544C7.87272 8.85122 7.80894 8.6299 7.78687 8.40256C7.65755 7.83118 7.75639 7.23189 8.06237 6.73231C8.36834 6.23272 8.85726 5.87233 9.425 5.72787C11.0706 5.37244 12.1146 6.50344 12.1146 8.09844C12.117 8.11708 12.1151 8.13603 12.1091 8.15383C12.103 8.17163 12.093 8.18781 12.0797 8.2011C12.0664 8.21439 12.0502 8.22446 12.0324 8.23051C12.0146 8.23656 11.9956 8.23844 11.977 8.236H11.9844ZM10.3604 6.62613C10.1738 6.57437 9.97824 6.56371 9.78713 6.5949C9.59603 6.62464 9.425 6.66108 9.251 6.80087C9.077 6.93992 8.9848 7.1749 8.95356 7.40244C8.95356 7.482 8.95356 7.49687 9.048 7.49687H10.8029C10.8899 7.49687 10.8899 7.49687 10.8824 7.38756C10.8741 7.25092 10.8376 7.1176 10.7739 6.99644C10.736 6.9071 10.6785 6.82743 10.6056 6.76333C10.5328 6.69922 10.4464 6.65233 10.353 6.62613H10.3604Z" fill="#FF6600"/>
</svg>
