<svg width="14" height="14" viewBox="0 0 14 14" fill="none" xmlns="http://www.w3.org/2000/svg">
<path d="M13.9927 3.18283C13.9862 2.88255 13.9621 2.58292 13.9206 2.28545C13.8704 2.0209 13.785 1.76428 13.6665 1.52247C13.4075 1.0109 12.9921 0.59527 12.4807 0.335993C12.2404 0.218202 11.9855 0.132986 11.7226 0.0825983C11.4229 0.0403423 11.1209 0.0158002 10.8183 0.00909981C10.6902 0.00419992 10.5243 0.00209997 10.4473 0.00209997L3.55382 0C3.47683 0 3.31093 0.00209995 3.18283 0.00699984C2.88255 0.01351 2.58292 0.0375839 2.28545 0.0790982C2.0209 0.129287 1.76428 0.214748 1.52247 0.333193C1.0109 0.592168 0.59527 1.00756 0.335993 1.51897C0.218202 1.75927 0.132986 2.01422 0.0825983 2.27705C0.0401081 2.57679 0.0153323 2.87878 0.00839988 3.18143C0.00419997 3.30953 0.00140004 3.47543 0.00140004 3.55242L0 10.4459C0 10.5229 0.00209995 10.6888 0.00699984 10.8169C0.01351 11.1171 0.0375839 11.4168 0.0790982 11.7142C0.129287 11.9788 0.214748 12.2354 0.333193 12.4772C0.592168 12.9888 1.00756 13.4044 1.51897 13.6637C1.75927 13.7815 2.01422 13.8667 2.27705 13.9171C2.5768 13.9594 2.87879 13.9839 3.18143 13.9906C3.30953 13.9955 3.47543 13.9976 3.55242 13.9976L10.4459 13.999C10.5229 13.999 10.6888 13.9969 10.8169 13.992C11.1171 13.9855 11.4168 13.9614 11.7142 13.9199C11.9788 13.8697 12.2354 13.7843 12.4772 13.6658C12.9891 13.407 13.4049 12.9916 13.6644 12.48C13.7822 12.2397 13.8674 11.9848 13.9178 11.7219C13.9603 11.4222 13.9851 11.1202 13.992 10.8176C13.9962 10.6895 13.999 10.5236 13.999 10.4466L13.9997 3.55382C13.9997 3.47683 13.9976 3.31093 13.9927 3.18283ZM7.15175 11.8696H7.14965C6.31633 11.8703 5.49624 11.6613 4.7648 11.2621L2.11885 11.9557L2.82724 9.3707C2.27877 8.41894 2.05962 7.31282 2.20376 6.22384C2.34791 5.13485 2.8473 4.12384 3.6245 3.34756C4.40171 2.57128 5.41331 2.07309 6.50247 1.93024C7.59162 1.78739 8.69748 2.00786 9.64859 2.55746C10.5997 3.10706 11.3429 3.9551 11.763 4.97008C12.1831 5.98506 12.2566 7.11028 11.9721 8.17129C11.6876 9.23229 11.0611 10.1698 10.1895 10.8385C9.31801 11.5071 8.25023 11.8696 7.15175 11.8696Z" fill="#FF6600"/>
<path d="M7.15393 2.73068C6.41271 2.73046 5.68496 2.92883 5.04637 3.30515C4.40778 3.68147 3.88167 4.222 3.52275 4.87053C3.16382 5.51906 2.9852 6.2519 3.00546 6.99285C3.02571 7.7338 3.24409 8.45579 3.63791 9.08374L3.7366 9.24054L3.31731 10.7707L4.88738 10.3591L5.03858 10.4487C5.67748 10.8278 6.40682 11.0276 7.14973 11.0269H7.15183C8.25207 11.0271 9.30732 10.5902 10.0854 9.81234C10.8636 9.03449 11.3008 7.97938 11.301 6.87914C11.3012 5.7789 10.8643 4.72365 10.0864 3.94553C9.30857 3.16741 8.25347 2.73017 7.15323 2.72998L7.15393 2.73068ZM9.59268 8.65955C9.50106 8.81119 9.37898 8.94217 9.23416 9.04422C9.08933 9.14627 8.92492 9.21717 8.7513 9.25244C8.48926 9.29746 8.22033 9.28068 7.96591 9.20344C7.72451 9.1286 7.48733 9.04074 7.25543 8.94025C6.39426 8.50807 5.66023 7.85944 5.12537 7.05799C4.8335 6.68704 4.65638 6.23888 4.61578 5.76862C4.61255 5.57454 4.64971 5.38191 4.72491 5.20296C4.8001 5.02401 4.91169 4.86265 5.05258 4.72914C5.09438 4.68177 5.14545 4.64347 5.20264 4.61662C5.25983 4.58978 5.32192 4.57494 5.38507 4.57304C5.46767 4.57304 5.55097 4.57304 5.62376 4.57724C5.70076 4.58074 5.80296 4.54784 5.90376 4.79144C6.00876 5.04063 6.25795 5.65452 6.28875 5.71682C6.3084 5.74952 6.31964 5.78658 6.32148 5.82469C6.32331 5.8628 6.31567 5.90077 6.29925 5.93521C6.26799 6.01017 6.22602 6.0802 6.17465 6.14311C6.11165 6.21591 6.04375 6.3055 5.98776 6.3615C5.92476 6.4238 5.86036 6.491 5.93246 6.6156C6.12001 6.93603 6.35375 7.22708 6.62614 7.47938C6.92229 7.74197 7.26166 7.95132 7.62922 8.09817C7.75382 8.16116 7.82662 8.14996 7.89941 8.06667C7.97221 7.98337 8.21091 7.70267 8.29421 7.57808C8.3775 7.45348 8.4601 7.47448 8.5742 7.51578C8.6883 7.55708 9.30218 7.85877 9.42678 7.92177C9.55138 7.98477 9.63468 8.01487 9.66548 8.06667C9.69912 8.26718 9.67383 8.47314 9.59268 8.65955Z" fill="#FF6600"/>
</svg>
