<svg width="15" height="15" viewBox="0 0 15 15" fill="none" xmlns="http://www.w3.org/2000/svg">
<path d="M7.78943 0C8.58402 0.00211889 8.98731 0.00635666 9.33552 0.0162448L9.47254 0.0211889C9.63075 0.0268392 9.78684 0.0339022 9.97542 0.0423777C10.7269 0.0776925 11.2397 0.19635 11.6896 0.370805C12.1558 0.550205 12.5485 0.79317 12.9412 1.18516C13.3004 1.53812 13.5784 1.96525 13.7555 2.43672C13.93 2.88663 14.0486 3.3994 14.0839 4.15161C14.0924 4.33948 14.0995 4.49557 14.1051 4.65449L14.1094 4.79151C14.12 5.13901 14.1242 5.5423 14.1256 6.33689L14.1263 6.86378V7.78903C14.128 8.30421 14.1226 8.81938 14.1101 9.33441L14.1058 9.47143C14.1002 9.63034 14.0931 9.78644 14.0846 9.97431C14.0493 10.7265 13.9293 11.2386 13.7555 11.6892C13.5784 12.1607 13.3004 12.5878 12.9412 12.9408C12.5882 13.3 12.1611 13.578 11.6896 13.7551C11.2397 13.9296 10.7269 14.0482 9.97542 14.0835L9.47254 14.1047L9.33552 14.109C8.98731 14.1189 8.58402 14.1238 7.78943 14.1252L7.26254 14.1259H6.338C5.82258 14.1277 5.30717 14.1223 4.79191 14.1097L4.65489 14.1054C4.48722 14.0991 4.31959 14.0918 4.15201 14.0835C3.40051 14.0482 2.88774 13.9296 2.43712 13.7551C1.9659 13.5779 1.53903 13.3 1.18627 12.9408C0.826729 12.5879 0.548564 12.1607 0.371207 11.6892C0.196752 11.2393 0.0780943 10.7265 0.0427795 9.97431L0.0215906 9.47143L0.0180592 9.33441C0.00503938 8.81939 -0.000847057 8.30421 0.000401739 7.78903V6.33689C-0.00155321 5.82171 0.00362684 5.30654 0.0159403 4.79151L0.0208844 4.65449C0.0265347 4.49557 0.0335977 4.33948 0.0420732 4.15161C0.077388 3.3994 0.196046 2.88734 0.370501 2.43672C0.548272 1.96506 0.826926 1.53791 1.18698 1.18516C1.53953 0.826048 1.96616 0.548138 2.43712 0.370805C2.88774 0.19635 3.3998 0.0776925 4.15201 0.0423777C4.33988 0.0339022 4.49668 0.0268392 4.65489 0.0211889L4.79191 0.0169511C5.30694 0.00440214 5.82211 -0.00101332 6.33729 0.000706245L7.78943 0ZM7.06336 3.53148C6.12675 3.53148 5.22851 3.90355 4.56623 4.56583C3.90395 5.22811 3.53188 6.12635 3.53188 7.06296C3.53188 7.99957 3.90395 8.89781 4.56623 9.56009C5.22851 10.2224 6.12675 10.5944 7.06336 10.5944C7.99997 10.5944 8.89821 10.2224 9.56049 9.56009C10.2228 8.89781 10.5948 7.99957 10.5948 7.06296C10.5948 6.12635 10.2228 5.22811 9.56049 4.56583C8.89821 3.90355 7.99997 3.53148 7.06336 3.53148ZM7.06336 4.94407C7.34162 4.94403 7.61716 4.99879 7.87425 5.10523C8.13134 5.21167 8.36495 5.36771 8.56174 5.56443C8.75853 5.76115 8.91465 5.99471 9.02118 6.25177C9.1277 6.50883 9.18256 6.78435 9.1826 7.06261C9.18265 7.34086 9.12789 7.6164 9.02145 7.8735C8.91501 8.13059 8.75897 8.3642 8.56224 8.56099C8.36552 8.75778 8.13196 8.91389 7.8749 9.02042C7.61785 9.12695 7.34232 9.1818 7.06407 9.18185C6.5021 9.18185 5.96316 8.95861 5.56579 8.56124C5.16842 8.16387 4.94518 7.62492 4.94518 7.06296C4.94518 6.501 5.16842 5.96205 5.56579 5.56468C5.96316 5.16731 6.5021 4.94407 7.06407 4.94407M10.7721 2.47204C10.538 2.47204 10.3134 2.56505 10.1478 2.73062C9.98227 2.89619 9.88925 3.12075 9.88925 3.35491C9.88925 3.58906 9.98227 3.81362 10.1478 3.97919C10.3134 4.14476 10.538 4.23778 10.7721 4.23778C11.0063 4.23778 11.2308 4.14476 11.3964 3.97919C11.562 3.81362 11.655 3.58906 11.655 3.35491C11.655 3.12075 11.562 2.89619 11.3964 2.73062C11.2308 2.56505 11.0063 2.47204 10.7721 2.47204Z" fill="#FF6600"/>
</svg>
