<svg width="15" height="15" viewBox="0 0 15 15" fill="none" xmlns="http://www.w3.org/2000/svg">
<path d="M12.5564 0C12.9726 0 13.3719 0.165362 13.6662 0.459709C13.9606 0.754057 14.1259 1.15328 14.1259 1.56955V12.5564C14.1259 12.9726 13.9606 13.3719 13.6662 13.6662C13.3719 13.9606 12.9726 14.1259 12.5564 14.1259H1.56955C1.15328 14.1259 0.754057 13.9606 0.459709 13.6662C0.165362 13.3719 0 12.9726 0 12.5564V1.56955C0 1.15328 0.165362 0.754057 0.459709 0.459709C0.754057 0.165362 1.15328 0 1.56955 0H12.5564ZM12.164 12.164V8.00469C12.164 7.32617 11.8944 6.67544 11.4147 6.19565C10.9349 5.71587 10.2841 5.44633 9.60562 5.44633C8.93857 5.44633 8.16164 5.85441 7.78495 6.46653V5.59543H5.59543V12.164H7.78495V8.29505C7.78495 7.69078 8.27151 7.19637 8.87579 7.19637C9.16717 7.19637 9.44663 7.31212 9.65267 7.51817C9.85871 7.72421 9.97447 8.00366 9.97447 8.29505V12.164H12.164ZM3.04492 4.36334C3.39459 4.36334 3.72993 4.22443 3.97718 3.97718C4.22443 3.72993 4.36334 3.39459 4.36334 3.04492C4.36334 2.31508 3.77476 1.71865 3.04492 1.71865C2.69317 1.71865 2.35583 1.85838 2.10711 2.10711C1.85838 2.35583 1.71865 2.69317 1.71865 3.04492C1.71865 3.77476 2.31508 4.36334 3.04492 4.36334ZM4.13576 12.164V5.59543H1.96193V12.164H4.13576Z" fill="#FF6600"/>
</svg>
